# xmcd CD database file
#
# Track frame offsets:
#	150
#	16022
#	37437
#	58577
#	72872
#	91627
#	112752
#
# Disc length: 1791 seconds
#
# Revision: 0
# Processed by: cddbd v1.5.1PL0 Copyright (c) Steve Scherf et al.
# Submitted via: CDex 1.51
#
DISCID=4e06fd07
DTITLE=神森徹也 - TOO TIRED
DYEAR=1997
DGENRE=JPop
TTITLE0=Too Tired
TTITLE1=無理してでも行こう
TTITLE2=It's So Hard Now, Today
TTITLE3=Think About You
TTITLE4=それにつけても
TTITLE5=サイコ
TTITLE6=サニー
EXTD=YEAR: 1997
EXTT0=
EXTT1=
EXTT2=
EXTT3=
EXTT4=
EXTT5=
EXTT6=
PLAYORDER=
